<?xml version="1.0" standalone="no"?>
<!DOCTYPE svg PUBLIC "-//W3C//DTD SVG 20010904//EN"
 "http://www.w3.org/TR/2001/REC-SVG-20010904/DTD/svg10.dtd">
<svg version="1.0" xmlns="http://www.w3.org/2000/svg"
 width="500.000000pt" height="500.000000pt" viewBox="0 0 500.000000 500.000000"
 preserveAspectRatio="xMidYMid meet">
<metadata>
Created by potrace 1.14, written by Peter Selinger 2001-2017
</metadata>
<g transform="translate(0.000000,500.000000) scale(0.100000,-0.100000)"
fill="#000000" stroke="none">
<path d="M2344 4410 c-494 -44 -954 -272 -1271 -630 -198 -224 -356 -521 -429
-807 -75 -295 -74 -646 1 -945 66 -261 203 -536 366 -733 303 -368 700 -598
1181 -685 271 -49 641 -17 922 80 284 98 500 229 709 429 241 232 414 510 509
821 144 475 100 975 -127 1426 -176 349 -421 606 -771 807 -306 176 -734 269
-1090 237z m292 -140 c223 -17 428 -72 632 -170 382 -184 659 -465 843 -855
185 -395 214 -864 78 -1295 -39 -126 -164 -373 -244 -485 -246 -343 -604 -587
-1015 -690 -271 -69 -593 -71 -850 -5 -268 69 -514 191 -710 355 -369 309
-588 720 -641 1206 -16 147 -5 365 26 516 159 774 787 1338 1581 1422 111 12
162 12 300 1z"/>
<path d="M2460 4220 c-18 -18 -20 -33 -20 -134 0 -63 4 -127 10 -141 9 -23 14
-26 52 -23 43 3 43 3 50 48 3 25 7 87 7 138 1 79 -2 95 -19 112 -11 11 -29 20
-40 20 -11 0 -29 -9 -40 -20z"/>
<path d="M2075 4030 c-4 -6 1 -43 11 -81 16 -62 20 -68 38 -63 12 4 22 8 24 9
1 1 -6 33 -16 71 -18 67 -40 91 -57 64z"/>
<path d="M2885 4028 c-14 -43 -36 -130 -33 -132 1 -2 12 -6 23 -10 18 -5 23 2
39 64 9 38 15 74 11 80 -9 14 -35 13 -40 -2z"/>
<path d="M1695 3888 c-11 -6 -22 -12 -24 -14 -4 -3 92 -176 112 -201 7 -10 16
-9 39 3 16 8 28 19 26 23 -17 40 -115 201 -123 201 -5 0 -19 -6 -30 -12z"/>
<path d="M3210 3803 c-30 -53 -56 -100 -58 -104 -2 -4 10 -15 26 -23 23 -12
32 -13 39 -3 19 24 115 198 112 201 -9 8 -48 26 -56 26 -4 0 -33 -44 -63 -97z"/>
<path d="M1370 3624 c-11 -13 -5 -23 40 -69 51 -52 55 -54 72 -38 18 16 17 19
-34 70 -29 29 -55 53 -59 53 -4 0 -12 -7 -19 -16z"/>
<path d="M3550 3585 c-51 -52 -53 -56 -37 -72 16 -17 20 -15 74 39 48 49 55
59 44 72 -8 9 -16 16 -20 16 -4 0 -31 -25 -61 -55z"/>
<path d="M2978 3173 c-221 -223 -257 -263 -263 -296 -9 -48 -1 -91 25 -127
l20 -28 -137 -125 c-76 -69 -142 -127 -147 -128 -5 -1 -55 40 -113 91 -75 68
-102 98 -97 109 16 38 16 121 -1 177 -55 190 -223 374 -418 457 -58 25 -86 31
-148 31 -67 1 -80 -2 -118 -27 -29 -19 -49 -43 -63 -74 -80 -182 120 -509 387
-634 88 -42 173 -56 233 -40 l47 12 52 -58 c29 -32 71 -78 92 -103 l39 -46
-328 -298 c-180 -164 -333 -309 -339 -322 -45 -100 74 -205 167 -148 15 9 125
125 245 258 120 133 250 276 290 319 l72 78 294 -325 c170 -188 306 -330 323
-337 110 -45 209 89 132 180 -14 17 -165 158 -335 313 -170 154 -309 283 -309
285 0 2 57 66 127 143 l126 139 31 -22 c45 -32 140 -31 181 1 16 13 135 131
264 263 151 155 230 244 224 250 -6 6 -83 -60 -218 -186 -152 -143 -214 -195
-229 -193 -49 7 -22 46 172 253 171 181 204 225 172 225 -4 0 -101 -88 -215
-195 -114 -107 -214 -195 -221 -195 -7 0 -18 9 -24 20 -12 23 -17 17 232 281
82 86 148 161 148 167 0 33 -37 4 -226 -173 -152 -143 -213 -195 -228 -193
-51 7 -28 41 169 251 171 182 206 227 177 227 -4 0 -123 -116 -264 -257z"/>
<path d="M1110 3300 c-7 -17 -11 -32 -9 -34 8 -6 201 -116 205 -116 2 0 10 13
19 30 14 28 14 30 -7 44 -53 33 -183 106 -189 106 -4 0 -12 -14 -19 -30z"/>
<path d="M3785 3284 c-135 -76 -128 -70 -110 -105 9 -17 19 -29 23 -27 9 4
195 110 201 114 5 5 -20 64 -28 64 -3 0 -42 -21 -86 -46z"/>
<path d="M963 2914 c-3 -8 -2 -19 3 -23 10 -9 134 -44 139 -39 1 2 5 12 9 23
5 18 -1 23 -58 38 -79 21 -85 21 -93 1z"/>
<path d="M3937 2912 c-50 -14 -56 -19 -51 -36 4 -12 8 -22 9 -24 1 -1 33 6 71
16 54 15 69 23 69 38 0 25 -26 27 -98 6z"/>
<path d="M780 2540 c-11 -11 -20 -29 -20 -40 0 -11 9 -29 20 -40 18 -18 32
-20 128 -19 59 1 121 4 137 8 27 5 30 10 33 49 3 38 0 43 -23 52 -14 6 -78 10
-141 10 -101 0 -116 -2 -134 -20z"/>
<path d="M3936 2547 c-13 -9 -17 -23 -14 -52 4 -49 15 -52 166 -54 125 -1 142
6 142 59 0 29 -5 42 -19 50 -29 15 -253 13 -275 -3z"/>
<path d="M1025 2131 c-37 -11 -61 -24 -63 -33 -5 -27 16 -30 88 -11 51 12 69
21 65 31 -3 8 -5 18 -5 23 0 12 -14 10 -85 -10z"/>
<path d="M3890 2141 c0 -5 -2 -15 -5 -23 -7 -18 132 -55 147 -40 20 20 0 37
-65 55 -76 20 -77 20 -77 8z"/>
<path d="M1205 1795 c-49 -30 -94 -56 -99 -58 -10 -3 11 -67 22 -67 6 0 182
99 199 113 10 7 9 15 -3 38 -8 16 -18 29 -22 28 -4 0 -47 -25 -97 -54z"/>
<path d="M3675 1821 c-18 -35 -27 -25 110 -105 l80 -47 18 22 c9 12 17 26 17
33 0 8 -157 106 -201 124 -4 2 -15 -10 -24 -27z"/>
<path d="M1410 1445 c-51 -52 -53 -56 -37 -72 16 -17 20 -15 74 39 48 49 55
59 44 72 -8 9 -16 16 -20 16 -4 0 -31 -25 -61 -55z"/>
<path d="M3509 1484 c-11 -13 -4 -23 44 -72 54 -54 58 -56 74 -39 16 16 14 20
-37 72 -30 30 -57 55 -61 55 -4 0 -12 -7 -20 -16z"/>
<path d="M1767 1303 c-32 -51 -97 -169 -97 -175 0 -7 60 -32 64 -27 4 6 110
192 114 201 2 4 -10 14 -27 23 -31 15 -31 15 -54 -22z"/>
<path d="M3177 1324 c-16 -9 -27 -19 -25 -23 18 -44 116 -201 124 -201 7 0 21
8 33 18 l20 17 -53 93 c-30 52 -58 98 -62 102 -5 5 -22 2 -37 -6z"/>
<path d="M2086 1051 c-19 -72 -16 -94 11 -89 10 2 23 28 35 72 10 38 17 70 16
71 -2 1 -12 5 -24 9 -18 5 -22 -1 -38 -63z"/>
<path d="M2868 1113 c-22 -5 -22 -1 -1 -80 18 -65 35 -85 55 -65 7 7 4 32 -8
81 -10 39 -21 70 -24 70 -3 -1 -13 -3 -22 -6z"/>
<path d="M2451 1061 c-14 -25 -14 -246 -1 -272 15 -27 85 -27 100 0 11 21 12
206 1 256 -5 27 -10 30 -48 33 -33 2 -44 -1 -52 -17z"/>
</g>
</svg>
